# xmcd
#
# Track frame offsets:
#	150
#	8313
#	46039
#	72719
#	91377
#	118061
#	132193
#	158851
#	183427
#	209955
#	231964
#	258662
#
# Disc length: 3532 seconds
#
# Revision: 1
# Processed by: cddbd v1.5.2PL0 Copyright (c) Steve Scherf et al.
# Submitted via: audiograbber 1.83.01
#
DISCID=aa0dca0c
DTITLE=David Grand, PhD - Brainspotting - Biolateral Sound Healing_CD2
DYEAR=2014
DGENRE=New Age
TTITLE0=Transitions, Part I
TTITLE1=Sea Change
TTITLE2=Healing Beat
TTITLE3=For Maria
TTITLE4=Pipe Dreams
TTITLE5=Gershwin By Guitar
TTITLE6=Ahn Watt Basis?
TTITLE7=Cocoy`s Boy
TTITLE8=Shake It
TTITLE9=Castaneda
TTITLE10=Confluential Journey
TTITLE11=Transitions, Part II
EXTD=
EXTT0=
EXTT1=
EXTT2=
EXTT3=
EXTT4=
EXTT5=
EXTT6=
EXTT7=
EXTT8=
EXTT9=
EXTT10=
EXTT11=
PLAYORDER=
